# Blender v2.83.0 OBJ File: 'Weapons.blend'
# www.blender.org
mtllib Arrow.mtl
o Arrow_Cylinder.002
v 0.302883 -0.000000 -0.011578
v -0.477080 -0.021350 -0.008890
v 0.302883 -0.010027 -0.005789
v -0.477080 -0.021350 0.008890
v 0.302883 -0.010027 0.005789
v 0.302883 -0.000000 0.011578
v -0.477080 0.021350 0.008890
v 0.302883 0.010027 0.005789
v -0.477080 0.021350 -0.008890
v 0.302883 0.010027 -0.005789
v 0.302883 -0.000000 -0.020673
v 0.302883 -0.017904 -0.010337
v 0.302883 -0.017904 0.010337
v 0.302883 -0.000000 0.020673
v 0.302883 0.017904 0.010337
v 0.302883 0.017904 -0.010337
v 0.371311 -0.000000 -0.000000
v -0.402593 0.021350 0.008890
v -0.462472 0.000000 0.008890
v -0.402593 -0.021350 0.008890
v -0.402593 -0.021350 -0.008890
v -0.462472 0.000000 -0.008890
v -0.402593 0.021350 -0.008890
v -0.380643 0.000000 -0.011578
v -0.380643 0.010027 -0.005789
v -0.380643 0.010027 0.005789
v -0.380643 0.000000 0.011578
v -0.380643 -0.010027 0.005789
v -0.380643 -0.010027 -0.005789
vt 0.071080 0.000184
vt 0.071080 0.999807
vt 0.053631 0.999816
vt 0.053631 0.000193
vt 0.000184 0.999816
vt 0.000184 0.000193
vt 0.017632 0.000184
vt 0.017632 0.999807
vt 0.035448 0.000184
vt 0.035448 0.999807
vt 0.018000 0.999816
vt 0.018000 0.000193
vt 0.088895 0.000184
vt 0.088895 0.999807
vt 0.071447 0.999816
vt 0.071447 0.000193
vt 0.106711 0.000184
vt 0.106711 0.999807
vt 0.089263 0.999816
vt 0.089263 0.000193
vt 0.053264 0.000184
vt 0.053264 0.999807
vt 0.035815 0.999816
vt 0.035815 0.000193
vt 0.276543 0.148825
vt 0.276543 0.131636
vt 0.288236 0.124885
vt 0.288236 0.155576
vt 0.285836 0.221131
vt 0.285836 0.203943
vt 0.297529 0.197192
vt 0.297529 0.227882
vt 0.229717 0.274813
vt 0.229717 0.292002
vt 0.218024 0.298753
vt 0.218024 0.268063
vt 0.288603 0.087882
vt 0.288603 0.070693
vt 0.300297 0.063942
vt 0.300297 0.094633
vt 0.288603 0.118940
vt 0.288603 0.101751
vt 0.300296 0.095000
vt 0.300296 0.125691
vt 0.288236 0.070693
vt 0.288236 0.087882
vt 0.276543 0.094633
vt 0.276543 0.063942
vt 0.201205 0.170060
vt 0.170837 0.165623
vt 0.201205 0.063942
vt 0.231941 0.170061
vt 0.201573 0.165622
vt 0.231941 0.063942
vt 0.212081 0.174888
vt 0.212081 0.205579
vt 0.107079 0.190234
vt 0.232308 0.068380
vt 0.262676 0.063942
vt 0.262676 0.170061
vt 0.212081 0.205946
vt 0.212081 0.236637
vt 0.107079 0.221292
vt 0.212081 0.237004
vt 0.212081 0.267695
vt 0.107079 0.252350
vt 0.259072 0.196824
vt 0.259072 0.170428
vt 0.297476 0.170428
vt 0.297476 0.196824
vt 0.107079 0.174521
vt 0.107079 0.063942
vt 0.170470 0.063942
vt 0.170470 0.174521
vt 0.138774 0.152835
vt 0.217657 0.294459
vt 0.107079 0.294459
vt 0.107079 0.268063
vt 0.217657 0.268063
vt 0.276175 0.109943
vt 0.276175 0.155576
vt 0.263044 0.144485
vt 0.250854 0.063575
vt 0.218024 0.031879
vt 0.250854 0.000184
vt 0.232308 0.281006
vt 0.232308 0.170428
vt 0.258704 0.170428
vt 0.258704 0.281006
vt 0.107079 0.063575
vt 0.128764 0.031879
vt 0.107079 0.000184
vt 0.217657 0.000184
vt 0.217657 0.063575
vt 0.212449 0.209430
vt 0.225581 0.174888
vt 0.225581 0.220521
vt 0.295738 0.262359
vt 0.259072 0.257756
vt 0.259072 0.240567
vt 0.295738 0.235963
vt 0.296826 0.017942
vt 0.296826 0.063575
vt 0.251221 0.061972
vt 0.225581 0.266522
vt 0.212449 0.231980
vt 0.225581 0.220889
vt 0.295738 0.289123
vt 0.259072 0.284519
vt 0.259072 0.267331
vt 0.295738 0.262727
vt 0.276175 0.109576
vt 0.263044 0.075033
vt 0.276175 0.063942
vt 0.285468 0.235596
vt 0.259072 0.235596
vt 0.259072 0.197192
vt 0.285468 0.197192
vn -0.0000 -0.5000 -0.8660
vn -0.0000 -1.0000 0.0000
vn -0.0000 -0.5000 0.8660
vn 0.0000 0.5000 0.8660
vn 0.0000 1.0000 0.0000
vn 0.0000 0.5000 -0.8660
vn -1.0000 -0.0000 0.0000
vn 0.2531 0.4837 -0.8378
vn 0.2531 0.4837 0.8378
vn 0.2531 -0.9674 0.0000
vn 0.2531 0.9674 0.0000
vn 0.2531 -0.4837 0.8378
vn 0.2531 -0.4837 -0.8378
vn -0.8253 -0.5647 0.0000
vn 0.0000 0.0000 1.0000
vn 0.3554 0.4673 0.8095
vn -0.1216 0.0000 0.9926
vn 0.0000 0.0000 -1.0000
vn 0.3554 -0.4673 -0.8095
vn 0.4585 0.8887 0.0000
vn -0.1216 0.0000 -0.9926
vn 0.3554 -0.4673 0.8095
vn 0.4585 -0.8887 0.0000
vn 0.3554 0.4673 -0.8095
vn -0.8253 0.5647 0.0000
usemtl Wood
s off
f 24/1/1 1/2/1 3/3/1 29/4/1
f 29/5/2 3/6/2 5/7/2 28/8/2
f 28/9/3 5/10/3 6/11/3 27/12/3
f 27/13/4 6/14/4 8/15/4 26/16/4
f 26/17/5 8/18/5 10/19/5 25/20/5
f 25/21/6 10/22/6 1/23/6 24/24/6
usemtl Steel
f 10/25/7 8/26/7 15/27/7 16/28/7
f 3/29/7 1/30/7 11/31/7 12/32/7
f 6/33/7 5/34/7 13/35/7 14/36/7
f 1/37/7 10/38/7 16/39/7 11/40/7
f 8/41/7 6/42/7 14/43/7 15/44/7
f 5/45/7 3/46/7 12/47/7 13/48/7
f 11/49/8 16/50/8 17/51/8
f 15/52/9 14/53/9 17/54/9
f 13/55/10 12/56/10 17/57/10
f 16/58/11 15/59/11 17/60/11
f 14/61/12 13/62/12 17/63/12
f 12/64/13 11/65/13 17/66/13
usemtl White
f 22/67/14 19/68/14 7/69/14 9/70/14
f 4/71/15 20/72/15 18/73/15 7/74/15 19/75/15
f 7/76/5 18/77/5 23/78/5 9/79/5
f 18/80/16 27/81/16 26/82/16
f 20/83/17 27/84/17 18/85/17
f 2/86/2 21/87/2 20/88/2 4/89/2
f 2/90/18 22/91/18 9/92/18 23/93/18 21/94/18
f 29/95/19 21/96/19 24/97/19
f 18/98/20 26/99/20 25/100/20 23/101/20
f 23/102/21 24/103/21 21/104/21
f 20/105/22 28/106/22 27/107/22
f 21/108/23 29/109/23 28/110/23 20/111/23
f 23/112/24 25/113/24 24/114/24
f 2/115/25 4/116/25 19/117/25 22/118/25
