# Blender v2.83.0 OBJ File: 'Weapons.blend'
# www.blender.org
mtllib Axe.mtl
o Axe2_Cube.003
v 0.206365 1.456451 -0.000000
v 0.250936 1.158376 0.012909
v 0.190771 1.400808 0.012909
v 0.247010 1.232894 0.012909
v 0.190771 1.400808 -0.012909
v 0.000000 1.016173 -0.050000
v 0.190771 0.915942 -0.012909
v 0.099340 1.300578 0.056225
v 0.190771 0.915942 0.012909
v 0.143367 0.982888 0.035838
v 0.099340 1.300578 -0.056225
v 0.143367 0.982888 -0.035838
v 0.231308 1.307413 0.012909
v 0.207754 1.381932 0.012909
v 0.099340 1.016173 -0.056225
v 0.099340 1.016173 0.056225
v -0.035355 1.016173 -0.035355
v -0.050000 1.016173 0.000000
v -0.035355 1.016173 0.035355
v 0.000000 1.016173 0.050000
v 0.035355 1.016173 0.035355
v 0.050000 1.016173 0.000000
v 0.035355 1.016173 -0.035355
v 0.000000 -0.242407 -0.050000
v -0.035355 -0.242407 -0.035355
v -0.050000 -0.242407 0.000000
v -0.035355 -0.242407 0.035355
v 0.000000 -0.242407 0.050000
v 0.035355 -0.242407 0.035355
v 0.050000 -0.242407 0.000000
v 0.035355 -0.242407 -0.035355
v 0.050000 0.200291 0.000000
v 0.035355 0.200291 0.035355
v 0.000000 0.200291 0.050000
v -0.035355 0.200291 0.035355
v -0.050000 0.200291 0.000000
v -0.035355 0.200291 -0.035355
v 0.035355 0.200291 -0.035355
v 0.000000 0.200291 -0.050000
v 0.050000 -0.200291 0.000000
v 0.000000 -0.200291 0.050000
v -0.050000 -0.200291 0.000000
v 0.035355 -0.200291 -0.035355
v 0.035355 -0.200291 0.035355
v -0.035355 -0.200291 0.035355
v -0.035355 -0.200291 -0.035355
v 0.000000 -0.200291 -0.050000
v 0.038207 -0.200291 0.038207
v 0.038207 0.200291 0.038207
v -0.038207 -0.200291 0.038207
v -0.038207 0.200291 0.038207
v -0.038207 -0.200291 -0.038207
v -0.038207 0.200291 -0.038207
v -0.000000 -0.200291 -0.054033
v -0.000000 0.200291 -0.054033
v 0.038207 0.200291 -0.038207
v -0.054033 0.200291 -0.000000
v -0.000000 0.200291 0.054033
v 0.054033 0.200291 -0.000000
v 0.054033 -0.200291 -0.000000
v -0.000000 -0.200291 0.054033
v -0.054033 -0.200291 -0.000000
v 0.038207 -0.200291 -0.038207
v 0.206365 0.860300 -0.000000
v 0.143367 1.333863 -0.035838
v 0.143367 1.333863 0.035838
v 0.249547 1.381932 -0.000000
v 0.273100 1.307413 -0.000000
v 0.288802 1.232894 -0.000000
v 0.292728 1.158376 -0.000000
v 0.288802 1.083856 -0.000000
v 0.273100 1.009338 -0.000000
v 0.249547 0.934819 -0.000000
v -0.063713 1.300578 0.030854
v -0.038342 1.300578 0.056225
v -0.038342 1.300578 -0.056225
v -0.063713 1.300578 -0.030854
v -0.063713 1.016173 -0.030854
v -0.038342 1.016173 -0.056225
v -0.038342 1.016173 0.056225
v -0.063713 1.016173 0.030854
v 0.247010 1.083856 0.012909
v 0.231308 1.009338 0.012909
v 0.207754 0.934819 0.012909
v 0.207754 1.381932 -0.012909
v 0.231308 1.307413 -0.012909
v 0.247010 1.232894 -0.012909
v 0.250936 1.158376 -0.012909
v 0.247010 1.083856 -0.012909
v 0.231308 1.009338 -0.012909
v 0.207754 0.934819 -0.012909
v 0.187739 1.158376 0.035838
v 0.183814 1.232894 0.035838
v 0.168112 1.307413 0.035838
v 0.183814 1.083856 0.035838
v 0.168112 1.009338 0.035838
v 0.168112 1.307413 -0.035838
v 0.183814 1.232894 -0.035838
v 0.187739 1.158376 -0.035838
v 0.183814 1.083856 -0.035838
v 0.168112 1.009338 -0.035838
v 0.124213 1.232894 -0.056225
v 0.128138 1.158376 -0.056225
v 0.124213 1.083856 -0.056225
v 0.128138 1.158376 0.056225
v 0.124213 1.232894 0.056225
v 0.124213 1.083856 0.056225
vt 0.258458 0.251818
vt 0.000776 0.251819
vt 0.000776 0.127073
vt 0.258458 0.127073
vt 0.142499 0.577336
vt 0.148139 0.542597
vt 0.148139 0.667342
vt 0.050783 0.442063
vt 0.050783 0.543948
vt 0.000776 0.525476
vt 0.000776 0.460534
vt 0.224398 0.512603
vt 0.224398 0.577545
vt 0.150076 0.556770
vt 0.150076 0.533377
vt 0.000776 0.125521
vt 0.000776 0.000776
vt 0.258458 0.000776
vt 0.258458 0.125521
vt 0.148509 0.356805
vt 0.148509 0.458689
vt 0.098501 0.440218
vt 0.098501 0.375276
vt 0.741497 0.338029
vt 0.741497 0.247846
vt 0.726251 0.306888
vt 0.570573 0.314339
vt 0.509777 0.319055
vt 0.570573 0.349012
vt 0.615788 0.000776
vt 0.615788 0.102660
vt 0.571083 0.051718
vt 0.636056 0.173777
vt 0.670624 0.232074
vt 0.670624 0.171095
vt 0.297394 0.631182
vt 0.312640 0.690225
vt 0.312640 0.600041
vt 0.509777 0.312788
vt 0.509777 0.247846
vt 0.584098 0.268620
vt 0.584098 0.292013
vt 0.148509 0.355254
vt 0.023763 0.355254
vt 0.000776 0.332267
vt 0.000776 0.276357
vt 0.023763 0.253370
vt 0.148509 0.253370
vt 0.674230 0.334972
vt 0.674230 0.358365
vt 0.621873 0.346669
vt 0.248779 0.512603
vt 0.248779 0.566251
vt 0.225949 0.517703
vt 0.225949 0.511052
vt 0.225949 0.253370
vt 0.258458 0.253370
vt 0.258458 0.511052
vt 0.150060 0.511052
vt 0.150060 0.253370
vt 0.182568 0.253370
vt 0.182568 0.511052
vt 0.352144 0.000776
vt 0.352144 0.258458
vt 0.296234 0.258458
vt 0.296234 0.000776
vt 0.748688 0.213283
vt 0.743048 0.248022
vt 0.748688 0.338029
vt 0.715917 0.199444
vt 0.731200 0.178392
vt 0.731200 0.210901
vt 0.719681 0.719455
vt 0.701176 0.714719
vt 0.719681 0.684783
vt 0.705718 0.000776
vt 0.666864 0.008583
vt 0.666864 0.077583
vt 0.705718 0.069775
vt 0.213420 0.730479
vt 0.253001 0.732471
vt 0.253001 0.664860
vt 0.213420 0.662868
vt 0.253001 0.590508
vt 0.215049 0.579096
vt 0.215049 0.649906
vt 0.253001 0.661317
vt 0.645615 0.330067
vt 0.683568 0.318656
vt 0.683568 0.247846
vt 0.645615 0.259258
vt 0.663209 0.590955
vt 0.702790 0.588964
vt 0.702790 0.521353
vt 0.663209 0.523344
vt 0.660770 0.662713
vt 0.699625 0.670521
vt 0.699625 0.601521
vt 0.660770 0.593713
vt 0.675511 0.234681
vt 0.714365 0.242488
vt 0.714365 0.173489
vt 0.675511 0.165681
vt 0.724700 0.247846
vt 0.685119 0.249838
vt 0.685119 0.317449
vt 0.724700 0.315457
vt 0.314191 0.682263
vt 0.352144 0.670851
vt 0.352144 0.600041
vt 0.314191 0.611453
vt 0.636008 0.158132
vt 0.673960 0.169544
vt 0.673960 0.098735
vt 0.636008 0.087323
vt 0.189657 0.647923
vt 0.150077 0.645931
vt 0.150076 0.713542
vt 0.189657 0.715534
vt 0.714365 0.087323
vt 0.675511 0.095130
vt 0.675511 0.164130
vt 0.714365 0.156323
vt 0.569532 0.083133
vt 0.509777 0.094938
vt 0.509777 0.163938
vt 0.569532 0.152132
vt 0.539305 0.524365
vt 0.478469 0.521353
vt 0.478469 0.588963
vt 0.539305 0.591975
vt 0.353695 0.591976
vt 0.414531 0.588964
vt 0.414531 0.521353
vt 0.353695 0.524365
vt 0.148509 0.472046
vt 0.088753 0.460240
vt 0.088753 0.529240
vt 0.148509 0.541046
vt 0.509777 0.069775
vt 0.569532 0.081581
vt 0.569532 0.012582
vt 0.509777 0.000776
vt 0.540856 0.591975
vt 0.601692 0.588963
vt 0.601692 0.521353
vt 0.540856 0.524365
vt 0.416082 0.588963
vt 0.476918 0.591976
vt 0.476918 0.524365
vt 0.416082 0.521353
vt 0.569532 0.165489
vt 0.509777 0.177295
vt 0.509777 0.246295
vt 0.569532 0.234489
vt 0.423750 0.666830
vt 0.463360 0.734064
vt 0.463360 0.665529
vt 0.087122 0.442063
vt 0.052334 0.461048
vt 0.087122 0.520097
vt 0.410697 0.596367
vt 0.353695 0.593527
vt 0.353695 0.661138
vt 0.410697 0.663978
vt 0.544690 0.663978
vt 0.601692 0.661137
vt 0.601692 0.593526
vt 0.544690 0.596367
vt 0.482303 0.663978
vt 0.539305 0.661137
vt 0.539305 0.593527
vt 0.482303 0.596367
vt 0.480752 0.596367
vt 0.423750 0.593527
vt 0.423750 0.661137
vt 0.480752 0.663978
vt 0.210212 0.253370
vt 0.210212 0.511052
vt 0.184120 0.382211
vt 0.748881 0.365271
vt 0.738966 0.432151
vt 0.748881 0.496727
vt 0.730481 0.658290
vt 0.740396 0.725170
vt 0.740396 0.593713
vt 0.352144 0.260009
vt 0.352144 0.517691
vt 0.326052 0.388850
vt 0.214483 0.320249
vt 0.224398 0.384826
vt 0.224398 0.253370
vt 0.751862 0.725170
vt 0.751862 0.593713
vt 0.741947 0.658290
vt 0.659219 0.662713
vt 0.659219 0.593713
vt 0.603243 0.651579
vt 0.617339 0.050369
vt 0.665313 0.081285
vt 0.665313 0.000776
vt 0.140948 0.623396
vt 0.073274 0.636858
vt 0.140948 0.680469
vt 0.056752 0.681383
vt 0.056752 0.612383
vt 0.000776 0.623518
vt 0.088753 0.573994
vt 0.140948 0.621845
vt 0.140948 0.542597
vt 0.644064 0.247846
vt 0.585649 0.265102
vt 0.644064 0.318656
vt 0.299949 0.550640
vt 0.352144 0.598490
vt 0.352144 0.519242
vt 0.661658 0.592162
vt 0.661658 0.521353
vt 0.603243 0.538609
vt 0.422199 0.665529
vt 0.382589 0.732763
vt 0.422199 0.734064
vt 0.603243 0.665565
vt 0.642853 0.732799
vt 0.642853 0.664264
vt 0.722625 0.069310
vt 0.707269 0.017907
vt 0.722625 0.000776
vt 0.718190 0.559213
vt 0.737414 0.571851
vt 0.737414 0.482332
vt 0.743670 0.176841
vt 0.715917 0.104834
vt 0.743670 0.087323
vt 0.381038 0.730813
vt 0.354370 0.684654
vt 0.381038 0.665529
vt 0.571083 0.220688
vt 0.634504 0.236379
vt 0.634504 0.171095
vt 0.572909 0.716932
vt 0.588265 0.665529
vt 0.588265 0.734064
vt 0.724176 0.017907
vt 0.739532 0.000776
vt 0.739532 0.069310
vt 0.738966 0.549682
vt 0.754321 0.498279
vt 0.754321 0.566813
vt 0.718190 0.377909
vt 0.737414 0.454789
vt 0.737414 0.365271
vt 0.728930 0.593713
vt 0.728930 0.683232
vt 0.701176 0.665720
vt 0.544690 0.711689
vt 0.571358 0.665529
vt 0.571358 0.730813
vt 0.634456 0.104211
vt 0.571083 0.153865
vt 0.634456 0.169544
vt 0.191209 0.722812
vt 0.210433 0.735450
vt 0.210433 0.645931
vt 0.323988 0.440597
vt 0.296234 0.368590
vt 0.323988 0.351079
vt 0.491579 0.730813
vt 0.464911 0.684654
vt 0.491579 0.665529
vt 0.150076 0.628689
vt 0.213498 0.644380
vt 0.213498 0.579096
vt 0.067897 0.534286
vt 0.087122 0.611167
vt 0.087122 0.521648
vt 0.323988 0.260009
vt 0.323988 0.349528
vt 0.296234 0.332016
vt 0.297320 0.488308
vt 0.323988 0.442148
vt 0.323988 0.507432
vt 0.064149 0.545499
vt 0.000776 0.595153
vt 0.064149 0.610832
vt 0.508466 0.665529
vt 0.508466 0.703688
vt 0.543139 0.703688
vt 0.543139 0.665529
vt 0.660770 0.672072
vt 0.660770 0.710230
vt 0.695443 0.710230
vt 0.695443 0.672072
vt 0.109498 0.682020
vt 0.109498 0.720179
vt 0.144170 0.720179
vt 0.144170 0.682020
vt 0.000776 0.682934
vt 0.000776 0.721093
vt 0.035448 0.721093
vt 0.035448 0.682934
vt 0.036999 0.682934
vt 0.036999 0.721093
vt 0.071672 0.721093
vt 0.071672 0.682934
vt 0.685119 0.319000
vt 0.685119 0.357159
vt 0.719792 0.357159
vt 0.719792 0.319000
vt 0.585649 0.320207
vt 0.585649 0.358365
vt 0.620322 0.358365
vt 0.620322 0.320207
vt 0.073274 0.682020
vt 0.073274 0.720179
vt 0.107946 0.720179
vt 0.107946 0.682020
vt 0.025293 0.440512
vt 0.059966 0.440512
vt 0.084483 0.415995
vt 0.084483 0.381322
vt 0.059966 0.356805
vt 0.025293 0.356805
vt 0.000776 0.381322
vt 0.000776 0.415995
vt 0.260009 0.921114
vt 0.999224 0.921115
vt 0.999224 0.886441
vt 0.260009 0.886441
vt 0.260009 0.776214
vt 0.999224 0.776216
vt 0.999224 0.741542
vt 0.260009 0.741542
vt 0.260009 0.848664
vt 0.999224 0.848665
vt 0.999224 0.813992
vt 0.260009 0.813992
vt 0.260009 0.957338
vt 0.999224 0.957339
vt 0.999224 0.922666
vt 0.260009 0.922666
vt 0.260009 0.884889
vt 0.999224 0.884890
vt 0.999224 0.850216
vt 0.260009 0.850216
vt 0.260009 0.993563
vt 0.999224 0.993564
vt 0.999224 0.958890
vt 0.260009 0.958891
vt 0.260009 0.812439
vt 0.999224 0.812440
vt 0.999224 0.777767
vt 0.260009 0.777767
vt 0.260010 0.000776
vt 0.260009 0.739991
vt 0.294683 0.739991
vt 0.294683 0.000776
vt 0.695443 0.730883
vt 0.695443 0.711781
vt 0.661853 0.720378
vt 0.312640 0.724284
vt 0.312640 0.691776
vt 0.297356 0.712827
vt 0.314191 0.697414
vt 0.336368 0.718487
vt 0.336368 0.683814
vt 0.224398 0.442287
vt 0.224398 0.386377
vt 0.211974 0.414332
vt 0.538023 0.731254
vt 0.538023 0.705239
vt 0.508466 0.723366
vt 0.254552 0.693208
vt 0.257928 0.694606
vt 0.257928 0.657137
vt 0.254552 0.658535
vt 0.577051 0.350410
vt 0.580427 0.351808
vt 0.580427 0.314339
vt 0.577051 0.315737
vt 0.254552 0.654187
vt 0.257928 0.655586
vt 0.257928 0.618116
vt 0.254552 0.619515
vt 0.575500 0.315737
vt 0.572124 0.314339
vt 0.572124 0.351808
vt 0.575500 0.350410
vt 0.089410 0.358203
vt 0.086034 0.356805
vt 0.086034 0.394274
vt 0.089410 0.392876
vt 0.413896 0.629598
vt 0.417272 0.630996
vt 0.417272 0.593527
vt 0.413896 0.594925
vt 0.224398 0.445237
vt 0.221022 0.443839
vt 0.221022 0.481308
vt 0.224398 0.479910
vt 0.067897 0.648789
vt 0.071273 0.650187
vt 0.071273 0.612718
vt 0.067897 0.614116
vt 0.508226 0.363720
vt 0.508226 0.000776
vt 0.470756 0.000776
vt 0.470756 0.363720
vt 0.353695 0.480781
vt 0.716639 0.480781
vt 0.716639 0.443312
vt 0.353695 0.443312
vt 0.353695 0.519801
vt 0.716639 0.519801
vt 0.716639 0.482332
vt 0.353695 0.482332
vt 0.431736 0.000776
vt 0.431736 0.363720
vt 0.469205 0.363720
vt 0.469205 0.000776
vt 0.353695 0.441761
vt 0.716639 0.441761
vt 0.716639 0.404291
vt 0.353695 0.404291
vt 0.353695 0.402740
vt 0.716639 0.402740
vt 0.716639 0.365271
vt 0.353695 0.365271
vt 0.392715 0.000776
vt 0.392716 0.363720
vt 0.430185 0.363720
vt 0.430185 0.000776
vt 0.353695 0.000776
vt 0.353695 0.363720
vt 0.391164 0.363720
vt 0.391164 0.000776
vt 0.094337 0.358203
vt 0.090961 0.356805
vt 0.090961 0.394274
vt 0.094337 0.392876
vt 0.422199 0.594925
vt 0.418823 0.593527
vt 0.418823 0.630996
vt 0.422199 0.629598
vt 0.086034 0.431896
vt 0.089410 0.433295
vt 0.089410 0.395825
vt 0.086034 0.397224
vt 0.058303 0.648454
vt 0.061678 0.649852
vt 0.061678 0.612383
vt 0.058303 0.613781
vt 0.090961 0.431896
vt 0.094337 0.433295
vt 0.094337 0.395825
vt 0.090961 0.397224
vt 0.216096 0.479910
vt 0.219471 0.481308
vt 0.219471 0.443839
vt 0.216095 0.445237
vt 0.250331 0.548674
vt 0.253706 0.550072
vt 0.253706 0.512603
vt 0.250331 0.514001
vt 0.254552 0.615167
vt 0.257928 0.616565
vt 0.257928 0.579096
vt 0.254552 0.580494
vn 0.0000 0.0000 1.0000
vn 0.0000 -1.0000 0.0000
vn -0.6031 0.7977 0.0000
vn -0.8161 0.5779 0.0000
vn 0.0000 0.0000 -1.0000
vn -0.6031 -0.7977 0.0000
vn -0.8161 -0.5779 0.0000
vn 0.0000 1.0000 0.0000
vn -0.9629 -0.2699 0.0000
vn -0.9629 0.2699 0.0000
vn -0.7071 -0.0000 -0.7071
vn -0.7071 0.0000 0.7071
vn -1.0000 0.0000 0.0000
vn 0.2946 -0.0621 0.9536
vn 0.2951 0.0155 0.9553
vn 0.2939 0.0929 0.9513
vn 0.2939 -0.0929 0.9513
vn 0.2951 -0.0155 0.9553
vn 0.2946 0.0621 0.9536
vn 0.2946 -0.0621 -0.9536
vn 0.2951 0.0155 -0.9553
vn 0.2939 0.0929 -0.9513
vn 0.2939 -0.0929 -0.9513
vn 0.2951 -0.0155 -0.9553
vn 0.2946 0.0621 -0.9536
vn 0.3402 -0.0717 0.9376
vn 0.3410 0.0180 0.9399
vn 0.3410 -0.0180 0.9399
vn 0.3402 0.0717 0.9376
vn 0.3402 -0.0717 -0.9376
vn 0.3410 0.0180 -0.9399
vn 0.3410 -0.0180 -0.9399
vn 0.3402 0.0717 -0.9376
vn 0.2909 0.1686 0.9418
vn 0.2909 0.1686 -0.9418
vn 0.3236 -0.0170 -0.9460
vn 0.3236 0.0170 -0.9460
vn 0.3236 -0.0170 0.9460
vn 0.3236 0.0170 0.9460
vn 0.3229 -0.0680 -0.9440
vn 0.3229 0.0680 -0.9440
vn 0.3229 0.0680 0.9440
vn 0.3229 -0.0680 0.9440
vn 0.3391 0.1072 0.9346
vn 0.3391 0.1072 -0.9346
vn 0.3391 -0.1072 -0.9346
vn 0.3391 -0.1072 0.9346
vn 0.2909 -0.1686 0.9418
vn 0.2909 -0.1686 -0.9418
vn 0.1901 0.1710 0.9668
vn 0.2065 0.1858 0.9607
vn 0.2004 0.1875 0.9616
vn 0.2543 -0.2379 0.9374
vn 0.2736 -0.1005 0.9566
vn 0.1901 -0.1710 0.9668
vn 0.1901 -0.1710 -0.9668
vn 0.1901 0.1710 -0.9668
vn 0.2065 0.1858 -0.9607
vn 0.2004 0.1875 -0.9616
vn 0.2543 0.2379 0.9374
vn 0.2736 0.1005 0.9566
vn 0.2065 -0.1858 -0.9607
vn 0.2004 -0.1875 -0.9616
vn 0.2543 0.2379 -0.9374
vn 0.2736 0.1005 -0.9566
vn 0.2065 -0.1858 0.9607
vn 0.2004 -0.1875 0.9616
vn 0.2543 -0.2379 -0.9374
vn 0.2736 -0.1005 -0.9566
vn 0.9239 0.0000 0.3827
vn -0.3827 0.0000 0.9239
vn -0.9239 0.0000 -0.3827
vn 0.9239 0.0000 -0.3827
vn 0.3827 0.0000 0.9239
vn -0.9239 0.0000 0.3827
vn -0.3827 0.0000 -0.9239
vn 0.3827 0.0000 -0.9239
usemtl Steel.003
s off
f 75/1/1 80/2/1 16/3/1 8/4/1
f 6/5/2 79/6/2 15/7/2
f 11/8/3 8/9/3 66/10/3 65/11/3
f 65/12/4 66/13/4 3/14/4 5/15/4
f 76/16/5 11/17/5 15/18/5 79/19/5
f 16/20/6 15/21/6 12/22/6 10/23/6
f 6/24/2 15/25/2 23/26/2
f 23/27/2 15/28/2 22/29/2
f 15/30/2 16/31/2 22/32/2
f 22/33/2 16/34/2 21/35/2
f 21/36/2 16/37/2 20/38/2
f 10/39/7 12/40/7 7/41/7 9/42/7
f 11/43/8 76/44/8 77/45/8 74/46/8 75/47/8 8/48/8
f 9/49/9 7/50/9 64/51/9
f 3/52/10 1/53/10 5/54/10
f 78/55/11 77/56/11 76/57/11 79/58/11
f 80/59/12 75/60/12 74/61/12 81/62/12
f 77/63/13 78/64/13 81/65/13 74/66/13
f 80/67/2 20/68/2 16/69/2
f 17/70/2 78/71/2 79/72/2
f 17/73/2 79/74/2 6/75/2
f 71/76/14 82/77/14 83/78/14 72/79/14
f 69/80/15 4/81/15 2/82/15 70/83/15
f 67/84/16 14/85/16 13/86/16 68/87/16
f 72/88/17 83/89/17 84/90/17 73/91/17
f 70/92/18 2/93/18 82/94/18 71/95/18
f 68/96/19 13/97/19 4/98/19 69/99/19
f 72/100/20 90/101/20 89/102/20 71/103/20
f 70/104/21 88/105/21 87/106/21 69/107/21
f 68/108/22 86/109/22 85/110/22 67/111/22
f 73/112/23 91/113/23 90/114/23 72/115/23
f 71/116/24 89/117/24 88/118/24 70/119/24
f 69/120/25 87/121/25 86/122/25 68/123/25
f 82/124/26 95/125/26 96/126/26 83/127/26
f 4/128/27 93/129/27 92/130/27 2/131/27
f 2/132/28 92/133/28 95/134/28 82/135/28
f 13/136/29 94/137/29 93/138/29 4/139/29
f 90/140/30 101/141/30 100/142/30 89/143/30
f 88/144/31 99/145/31 98/146/31 87/147/31
f 89/148/32 100/149/32 99/150/32 88/151/32
f 87/152/33 98/153/33 97/154/33 86/155/33
f 67/156/34 1/157/34 14/158/34
f 67/159/35 85/160/35 1/161/35
f 100/162/36 104/163/36 103/164/36 99/165/36
f 99/166/37 103/167/37 102/168/37 98/169/37
f 92/170/38 105/171/38 107/172/38 95/173/38
f 93/174/39 106/175/39 105/176/39 92/177/39
f 8/178/1 16/179/1 105/180/1
f 105/181/1 106/182/1 8/183/1
f 107/184/1 105/185/1 16/186/1
f 15/187/5 11/188/5 103/189/5
f 104/190/5 15/191/5 103/192/5
f 103/193/5 11/194/5 102/195/5
f 100/196/40 101/197/40 104/198/40
f 98/199/41 102/200/41 97/201/41
f 93/202/42 94/203/42 106/204/42
f 96/205/43 95/206/43 107/207/43
f 13/208/44 14/209/44 94/210/44
f 86/211/45 97/212/45 85/213/45
f 90/214/46 91/215/46 101/216/46
f 84/217/47 83/218/47 96/219/47
f 64/220/48 73/221/48 84/222/48
f 73/223/49 64/224/49 91/225/49
f 1/226/50 3/227/50 14/228/50
f 14/229/51 3/230/51 94/231/51
f 3/232/52 66/233/52 94/234/52
f 16/235/53 10/236/53 96/237/53
f 107/238/54 16/239/54 96/240/54
f 9/241/55 64/242/55 84/243/55
f 7/244/56 91/245/56 64/246/56
f 5/247/57 1/248/57 85/249/57
f 85/250/58 97/251/58 5/252/58
f 5/253/59 97/254/59 65/255/59
f 66/256/60 8/257/60 94/258/60
f 106/259/61 94/260/61 8/261/61
f 91/262/62 7/263/62 101/264/62
f 7/265/63 12/266/63 101/267/63
f 11/268/64 65/269/64 97/270/64
f 102/271/65 11/272/65 97/273/65
f 84/274/66 96/275/66 9/276/66
f 9/277/67 96/278/67 10/279/67
f 12/280/68 15/281/68 101/282/68
f 104/283/69 101/284/69 15/285/69
usemtl Wood.002
f 44/286/70 29/287/70 30/288/70 40/289/70
f 45/290/71 27/291/71 28/292/71 41/293/71
f 46/294/72 25/295/72 26/296/72 42/297/72
f 40/298/73 30/299/73 31/300/73 43/301/73
f 41/302/74 28/303/74 29/304/74 44/305/74
f 42/306/75 26/307/75 27/308/75 45/309/75
f 47/310/76 24/311/76 25/312/76 46/313/76
f 43/314/77 31/315/77 24/316/77 47/317/77
f 24/318/2 31/319/2 30/320/2 29/321/2 28/322/2 27/323/2 26/324/2 25/325/2
f 23/326/77 38/327/77 39/328/77 6/329/77
f 6/330/76 39/331/76 37/332/76 17/333/76
f 18/334/75 36/335/75 35/336/75 19/337/75
f 20/338/74 34/339/74 33/340/74 21/341/74
f 22/342/73 32/343/73 38/344/73 23/345/73
f 17/346/72 37/347/72 36/348/72 18/349/72
f 19/350/71 35/351/71 34/352/71 20/353/71
f 21/354/70 33/355/70 32/356/70 22/357/70
f 80/358/2 19/359/2 20/360/2
f 80/361/2 81/362/2 19/363/2
f 81/364/2 18/365/2 19/366/2
f 81/367/2 78/368/2 18/369/2
f 78/370/2 17/371/2 18/372/2
usemtl Leather.003
f 35/373/8 51/374/8 58/375/8 34/376/8
f 43/377/2 63/378/2 60/379/2 40/380/2
f 37/381/8 53/382/8 57/383/8 36/384/8
f 44/385/2 48/386/2 61/387/2 41/388/2
f 32/389/8 59/390/8 56/391/8 38/392/8
f 45/393/2 50/394/2 62/395/2 42/396/2
f 34/397/8 58/398/8 49/399/8 33/400/8
f 46/401/2 52/402/2 54/403/2 47/404/2
f 56/405/77 63/406/77 54/407/77 55/408/77
f 55/409/76 54/410/76 52/411/76 53/412/76
f 57/413/75 62/414/75 50/415/75 51/416/75
f 58/417/74 61/418/74 48/419/74 49/420/74
f 59/421/73 60/422/73 63/423/73 56/424/73
f 53/425/72 52/426/72 62/427/72 57/428/72
f 51/429/71 50/430/71 61/431/71 58/432/71
f 49/433/70 48/434/70 60/435/70 59/436/70
f 42/437/2 62/438/2 52/439/2 46/440/2
f 33/441/8 49/442/8 59/443/8 32/444/8
f 41/445/2 61/446/2 50/447/2 45/448/2
f 38/449/8 56/450/8 55/451/8 39/452/8
f 40/453/2 60/454/2 48/455/2 44/456/2
f 39/457/8 55/458/8 53/459/8 37/460/8
f 47/461/2 54/462/2 63/463/2 43/464/2
f 36/465/8 57/466/8 51/467/8 35/468/8
