# Blender v2.83.0 OBJ File: 'Weapons.blend'
# www.blender.org
mtllib Bow.mtl
o Bow_Cylinder.003
v -0.000000 -0.137074 -0.033390
v -0.000000 0.137074 -0.033390
v 0.023610 -0.137074 -0.023610
v 0.023610 0.137074 -0.023610
v 0.033390 -0.137074 0.000000
v 0.033390 0.137074 0.000000
v 0.023610 -0.137074 0.023610
v 0.023610 0.137074 0.023610
v -0.000000 -0.137074 0.033390
v -0.000000 0.137074 0.033390
v -0.023610 -0.137074 0.023610
v -0.023610 0.137074 0.023610
v -0.033390 -0.137074 -0.000000
v -0.033390 0.137074 -0.000000
v -0.023610 -0.137074 -0.023610
v -0.023610 0.137074 -0.023610
v -0.000000 -0.137074 -0.041101
v 0.029063 -0.137074 -0.029063
v 0.029063 0.137074 -0.029063
v -0.000000 0.137074 -0.041101
v 0.041101 -0.137074 0.000000
v 0.041101 0.137074 0.000000
v 0.029063 -0.137074 0.029063
v 0.029063 0.137074 0.029063
v -0.000000 -0.137074 0.041101
v -0.000000 0.137074 0.041101
v -0.029063 -0.137074 0.029063
v -0.029063 0.137074 0.029063
v -0.041101 -0.137074 -0.000000
v -0.041101 0.137074 -0.000000
v -0.029063 -0.137074 -0.029063
v -0.029063 0.137074 -0.029063
v -0.020756 -0.373098 -0.032475
v 0.002207 -0.373098 -0.022963
v 0.002207 0.373098 -0.022963
v -0.020756 0.373098 -0.032475
v 0.011719 -0.373098 0.000000
v 0.011719 0.373098 0.000000
v 0.002207 -0.373098 0.022963
v 0.002207 0.373098 0.022963
v -0.020756 -0.373098 0.032475
v -0.020756 0.373098 0.032475
v -0.043719 -0.373098 0.022963
v -0.043719 0.373098 0.022963
v -0.053230 -0.373098 -0.000000
v -0.053230 0.373098 -0.000000
v -0.043719 -0.373098 -0.022963
v -0.043719 0.373098 -0.022963
v -0.081002 -0.671576 -0.024356
v -0.063780 -0.671576 -0.017222
v -0.063780 0.671576 -0.017222
v -0.081002 0.671576 -0.024356
v -0.056646 -0.671576 0.000000
v -0.056646 0.671576 0.000000
v -0.063780 -0.671576 0.017222
v -0.063780 0.671576 0.017222
v -0.081002 -0.671576 0.024356
v -0.081002 0.671576 0.024356
v -0.098224 -0.671576 0.017222
v -0.098224 0.671576 0.017222
v -0.105358 -0.671576 -0.000000
v -0.105358 0.671576 -0.000000
v -0.098224 -0.671576 -0.017222
v -0.098224 0.671576 -0.017222
v -0.165979 -0.940206 -0.016237
v -0.154498 -0.940206 -0.011481
v -0.154498 0.940206 -0.011481
v -0.165979 0.940206 -0.016237
v -0.149742 -0.940206 0.000000
v -0.149742 0.940206 0.000000
v -0.154498 -0.940206 0.011481
v -0.154498 0.940206 0.011481
v -0.165979 -0.940206 0.016237
v -0.165979 0.940206 0.016237
v -0.177461 -0.940206 0.011481
v -0.177461 0.940206 0.011481
v -0.182216 -0.940206 -0.000000
v -0.182216 0.940206 -0.000000
v -0.177461 -0.940206 -0.011481
v -0.177461 0.940206 -0.011481
vt 0.518499 0.000670
vt 0.553897 0.001804
vt 0.553897 0.330247
vt 0.519469 0.329143
vt 0.774323 0.328923
vt 0.738925 0.330058
vt 0.739895 0.001774
vt 0.774323 0.000670
vt 0.887331 0.388587
vt 0.921130 0.381942
vt 0.921130 0.804090
vt 0.895782 0.809074
vt 0.745429 0.810624
vt 0.711625 0.804003
vt 0.720077 0.381942
vt 0.745429 0.386907
vt 0.737585 0.328923
vt 0.702187 0.330058
vt 0.703158 0.001774
vt 0.737585 0.000670
vt 0.627372 0.329112
vt 0.591974 0.330247
vt 0.592944 0.001773
vt 0.627372 0.000670
vt 0.775662 0.000670
vt 0.811061 0.001805
vt 0.811061 0.330058
vt 0.776633 0.328954
vt 0.261992 0.000670
vt 0.297296 0.003484
vt 0.297296 0.331847
vt 0.262960 0.329111
vt 0.480515 0.328954
vt 0.445211 0.331769
vt 0.446178 0.003407
vt 0.480515 0.000670
vt 0.260652 0.329033
vt 0.225348 0.331847
vt 0.226316 0.003407
vt 0.260652 0.000670
vt 0.333940 0.329033
vt 0.298636 0.331847
vt 0.299603 0.003407
vt 0.333940 0.000670
vt 0.408567 0.000670
vt 0.443872 0.003484
vt 0.443872 0.331769
vt 0.409535 0.329031
vt 0.371924 0.000670
vt 0.407228 0.003484
vt 0.407228 0.331769
vt 0.372891 0.329031
vt 0.335280 0.000670
vt 0.370584 0.003484
vt 0.370584 0.331847
vt 0.336247 0.329110
vt 0.517159 0.328954
vt 0.481855 0.331769
vt 0.482822 0.003407
vt 0.517159 0.000670
vt 0.664110 0.329112
vt 0.628712 0.330247
vt 0.629682 0.001773
vt 0.664110 0.000670
vt 0.665449 0.000670
vt 0.700848 0.001805
vt 0.700848 0.330058
vt 0.666420 0.328954
vt 0.555236 0.000670
vt 0.590635 0.001804
vt 0.590635 0.330247
vt 0.556207 0.329143
vt 0.974603 0.389422
vt 0.999330 0.381942
vt 0.999330 0.772568
vt 0.982844 0.777555
vt 0.292484 0.914723
vt 0.267743 0.907289
vt 0.275989 0.516749
vt 0.292484 0.521705
vt 0.462537 0.384885
vt 0.496856 0.381942
vt 0.496856 0.806305
vt 0.471116 0.808512
vt 0.675143 0.804735
vt 0.640826 0.801766
vt 0.649404 0.381942
vt 0.675143 0.384169
vt 0.044266 0.808512
vt 0.009946 0.805569
vt 0.018526 0.381942
vt 0.044266 0.384149
vt 0.605169 0.384911
vt 0.639486 0.381942
vt 0.639486 0.802508
vt 0.613748 0.804735
vt 0.461197 0.808512
vt 0.426877 0.805569
vt 0.435457 0.381942
vt 0.461197 0.384149
vt 0.533855 0.384911
vt 0.568172 0.381942
vt 0.568172 0.802508
vt 0.542434 0.804735
vt 0.498196 0.384885
vt 0.532515 0.381942
vt 0.532515 0.806305
vt 0.506776 0.808512
vt 0.603829 0.804735
vt 0.569512 0.801766
vt 0.578091 0.381942
vt 0.603829 0.384169
vt 0.815715 0.810624
vt 0.781912 0.804003
vt 0.790363 0.381942
vt 0.815715 0.386907
vt 0.852193 0.388587
vt 0.885992 0.381942
vt 0.885992 0.804090
vt 0.860644 0.809074
vt 0.746768 0.388563
vt 0.780572 0.381942
vt 0.780572 0.805658
vt 0.755220 0.810624
vt 0.676482 0.388563
vt 0.710286 0.381942
vt 0.710286 0.805658
vt 0.684934 0.810624
vt 0.850853 0.809074
vt 0.817055 0.802428
vt 0.825505 0.381942
vt 0.850853 0.386926
vt 0.079404 0.943880
vt 0.045605 0.937235
vt 0.054056 0.516749
vt 0.079404 0.521733
vt 0.346490 0.345365
vt 0.346490 0.362588
vt 0.334312 0.374766
vt 0.317089 0.374766
vt 0.304911 0.362588
vt 0.304911 0.345365
vt 0.317089 0.333187
vt 0.334312 0.333187
vt 0.291393 0.333187
vt 0.303571 0.345365
vt 0.303571 0.362588
vt 0.291393 0.374766
vt 0.274170 0.374766
vt 0.261992 0.362588
vt 0.261992 0.345365
vt 0.274170 0.333187
vt 0.319899 0.524183
vt 0.344640 0.516749
vt 0.344640 0.909766
vt 0.328145 0.914723
vt 0.215582 0.524183
vt 0.240323 0.516749
vt 0.240323 0.909769
vt 0.223828 0.914725
vt 0.947197 0.777555
vt 0.922470 0.770075
vt 0.930711 0.381942
vt 0.947197 0.386929
vt 0.318559 0.912362
vt 0.293832 0.904881
vt 0.302073 0.516749
vt 0.318559 0.521736
vt 0.266404 0.914725
vt 0.241663 0.907291
vt 0.249909 0.516749
vt 0.266404 0.521705
vt 0.948536 0.389422
vt 0.973264 0.381942
vt 0.973264 0.772568
vt 0.956778 0.777555
vt 0.134684 0.519986
vt 0.160315 0.516749
vt 0.160315 0.910759
vt 0.143228 0.912917
vt 0.187279 0.907163
vt 0.161654 0.903877
vt 0.170195 0.516749
vt 0.187279 0.518939
vt 0.133345 0.912917
vt 0.107714 0.909680
vt 0.116258 0.516749
vt 0.133345 0.518907
vt 0.345979 0.520034
vt 0.371604 0.516749
vt 0.371604 0.904973
vt 0.354520 0.907163
vt 0.425538 0.912917
vt 0.399907 0.909679
vt 0.408451 0.516749
vt 0.425538 0.518907
vt 0.188618 0.520034
vt 0.214243 0.516749
vt 0.214243 0.904972
vt 0.197159 0.907163
vt 0.080744 0.519986
vt 0.106374 0.516749
vt 0.106374 0.910759
vt 0.089288 0.912917
vt 0.398568 0.907163
vt 0.372943 0.903877
vt 0.381484 0.516749
vt 0.398568 0.518939
vt 0.045605 0.380602
vt 0.045606 0.000670
vt 0.089202 0.000670
vt 0.089202 0.380602
vt 0.425538 0.425538
vt 0.045605 0.425538
vt 0.045605 0.381942
vt 0.425538 0.381942
vt 0.000670 0.380602
vt 0.000670 0.000670
vt 0.044266 0.000670
vt 0.044266 0.380602
vt 0.224008 0.000670
vt 0.224008 0.380602
vt 0.180412 0.380602
vt 0.180412 0.000670
vt 0.425538 0.470474
vt 0.045605 0.470473
vt 0.045605 0.426877
vt 0.425538 0.426877
vt 0.425538 0.515409
vt 0.045605 0.515409
vt 0.045605 0.471813
vt 0.425538 0.471813
vt 0.135477 0.380602
vt 0.135477 0.000670
vt 0.179073 0.000670
vt 0.179073 0.380602
vt 0.090541 0.380602
vt 0.090541 0.000670
vt 0.134137 0.000670
vt 0.134137 0.380602
vt 0.459962 0.372693
vt 0.459962 0.337277
vt 0.469836 0.333187
vt 0.469836 0.376783
vt 0.370256 0.372693
vt 0.370256 0.337277
vt 0.380130 0.333187
vt 0.380130 0.376783
vt 0.392683 0.372693
vt 0.392683 0.337277
vt 0.402556 0.333187
vt 0.402556 0.376783
vt 0.250779 0.372693
vt 0.250779 0.337277
vt 0.260652 0.333187
vt 0.260652 0.376783
vt 0.481049 0.337277
vt 0.481049 0.372693
vt 0.471175 0.376783
vt 0.471175 0.333187
vt 0.492262 0.337277
vt 0.492262 0.372693
vt 0.482388 0.376783
vt 0.482388 0.333187
vt 0.368917 0.337277
vt 0.368917 0.372693
vt 0.359043 0.376783
vt 0.359043 0.333187
vt 0.403896 0.372693
vt 0.403896 0.337277
vt 0.413770 0.333187
vt 0.413770 0.376783
vt 0.235222 0.337277
vt 0.235222 0.372693
vt 0.225348 0.376783
vt 0.225348 0.333187
vt 0.381470 0.372693
vt 0.381470 0.337277
vt 0.391343 0.333187
vt 0.391343 0.376783
vt 0.448749 0.372693
vt 0.448749 0.337277
vt 0.458623 0.333187
vt 0.458623 0.376783
vt 0.436196 0.337277
vt 0.436196 0.372693
vt 0.426322 0.376783
vt 0.426322 0.333187
vt 0.415109 0.372693
vt 0.415109 0.337277
vt 0.424983 0.333187
vt 0.424983 0.376783
vt 0.437536 0.372693
vt 0.437536 0.337277
vt 0.447409 0.333187
vt 0.447409 0.376783
vt 0.347830 0.372693
vt 0.347830 0.337277
vt 0.357704 0.333187
vt 0.357704 0.376783
vt 0.236561 0.372693
vt 0.236561 0.337277
vt 0.246435 0.333187
vt 0.246435 0.376783
vn 0.9206 -0.0845 0.3813
vn -0.9211 -0.0774 0.3815
vn -0.3822 -0.0520 0.9226
vn 0.3807 0.1018 -0.9191
vn -0.9211 0.0774 -0.3815
vn 0.9206 0.0845 0.3813
vn -0.9211 -0.0774 -0.3815
vn 0.3824 -0.0372 0.9232
vn -0.3825 0.0301 -0.9235
vn 0.3824 0.0372 0.9232
vn 0.3824 -0.0372 -0.9232
vn -0.3825 -0.0301 -0.9235
vn -0.3825 0.0301 0.9235
vn 0.3824 0.0372 -0.9232
vn -0.3825 -0.0301 0.9235
vn 0.9206 -0.0845 -0.3813
vn -0.9211 0.0774 0.3815
vn 0.9206 0.0845 -0.3813
vn -0.3810 0.0927 -0.9199
vn 0.3785 -0.1474 0.9138
vn 0.9039 -0.2070 -0.3744
vn -0.9121 0.1593 0.3778
vn 0.9039 0.2070 -0.3744
vn -0.9121 -0.1593 0.3778
vn 0.9039 -0.2070 0.3744
vn -0.9121 0.1593 -0.3778
vn 0.9039 0.2070 0.3744
vn -0.9121 -0.1593 -0.3778
vn 0.3807 -0.1018 0.9191
vn -0.3822 0.0520 -0.9226
vn 0.3807 0.1018 0.9191
vn 0.3807 -0.1018 -0.9191
vn -0.3822 -0.0520 -0.9226
vn -0.3822 0.0520 0.9226
vn 0.0000 1.0000 -0.0000
vn 0.0000 -1.0000 0.0000
vn 0.3785 0.1474 0.9138
vn 0.3785 -0.1474 -0.9138
vn -0.3810 -0.0927 -0.9199
vn -0.3810 0.0927 0.9199
vn 0.3785 0.1474 -0.9138
vn -0.3810 -0.0927 0.9199
vn 0.8799 -0.3049 -0.3645
vn -0.8932 0.2556 0.3700
vn 0.8799 0.3049 -0.3645
vn -0.8932 -0.2556 0.3700
vn 0.8799 -0.3049 0.3645
vn -0.8932 0.2556 -0.3700
vn 0.8799 0.3049 0.3645
vn -0.8932 -0.2556 -0.3700
vn 0.3827 0.0000 -0.9239
vn 0.9239 0.0000 -0.3827
vn 0.9239 0.0000 0.3827
vn 0.3827 0.0000 0.9239
vn -0.3827 0.0000 0.9239
vn -0.9239 0.0000 0.3827
vn -0.9239 0.0000 -0.3827
vn -0.3827 0.0000 -0.9239
usemtl Wood
s off
f 5/1/1 7/2/1 39/3/1 37/4/1
f 14/5/2 12/6/2 44/7/2 46/8/2
f 44/9/3 42/10/3 58/11/3 60/12/3
f 35/13/4 36/14/4 52/15/4 51/16/4
f 13/17/5 15/18/5 47/19/5 45/20/5
f 8/21/6 6/22/6 38/23/6 40/24/6
f 16/25/7 14/26/7 46/27/7 48/28/7
f 7/29/8 9/30/8 41/31/8 39/32/8
f 15/33/9 1/34/9 33/35/9 47/36/9
f 10/37/10 8/38/10 40/39/10 42/40/10
f 1/41/11 3/42/11 34/43/11 33/44/11
f 2/45/12 16/46/12 48/47/12 36/48/12
f 9/49/13 11/50/13 43/51/13 41/52/13
f 4/53/14 2/54/14 36/55/14 35/56/14
f 12/57/15 10/58/15 42/59/15 44/60/15
f 3/61/16 5/62/16 37/63/16 34/64/16
f 11/65/17 13/66/17 45/67/17 43/68/17
f 6/69/18 4/70/18 35/71/18 38/72/18
f 63/73/19 49/74/19 65/75/19 79/76/19
f 55/77/20 57/78/20 73/79/20 71/80/20
f 34/81/21 37/82/21 53/83/21 50/84/21
f 43/85/22 45/86/22 61/87/22 59/88/22
f 38/89/23 35/90/23 51/91/23 54/92/23
f 46/93/24 44/94/24 60/95/24 62/96/24
f 37/97/25 39/98/25 55/99/25 53/100/25
f 45/101/26 47/102/26 63/103/26 61/104/26
f 40/105/27 38/106/27 54/107/27 56/108/27
f 48/109/28 46/110/28 62/111/28 64/112/28
f 39/113/29 41/114/29 57/115/29 55/116/29
f 47/117/30 33/118/30 49/119/30 63/120/30
f 42/121/31 40/122/31 56/123/31 58/124/31
f 33/125/32 34/126/32 50/127/32 49/128/32
f 36/129/33 48/130/33 64/131/33 52/132/33
f 41/133/34 43/134/34 59/135/34 57/136/34
f 67/137/35 68/138/35 80/139/35 78/140/35 76/141/35 74/142/35 72/143/35 70/144/35
f 65/145/36 66/146/36 69/147/36 71/148/36 73/149/36 75/150/36 77/151/36 79/152/36
f 58/153/37 56/154/37 72/155/37 74/156/37
f 49/157/38 50/158/38 66/159/38 65/160/38
f 52/161/39 64/162/39 80/163/39 68/164/39
f 57/165/40 59/166/40 75/167/40 73/168/40
f 51/169/41 52/170/41 68/171/41 67/172/41
f 60/173/42 58/174/42 74/175/42 76/176/42
f 50/177/43 53/178/43 69/179/43 66/180/43
f 59/181/44 61/182/44 77/183/44 75/184/44
f 54/185/45 51/186/45 67/187/45 70/188/45
f 62/189/46 60/190/46 76/191/46 78/192/46
f 53/193/47 55/194/47 71/195/47 69/196/47
f 61/197/48 63/198/48 79/199/48 77/200/48
f 56/201/49 54/202/49 70/203/49 72/204/49
f 64/205/50 62/206/50 78/207/50 80/208/50
usemtl Leather
f 17/209/51 20/210/51 19/211/51 18/212/51
f 18/213/52 19/214/52 22/215/52 21/216/52
f 21/217/53 22/218/53 24/219/53 23/220/53
f 23/221/54 24/222/54 26/223/54 25/224/54
f 25/225/55 26/226/55 28/227/55 27/228/55
f 27/229/56 28/230/56 30/231/56 29/232/56
f 29/233/57 30/234/57 32/235/57 31/236/57
f 31/237/58 32/238/58 20/239/58 17/240/58
f 3/241/36 1/242/36 17/243/36 18/244/36
f 2/245/35 4/246/35 19/247/35 20/248/35
f 5/249/36 3/250/36 18/251/36 21/252/36
f 4/253/35 6/254/35 22/255/35 19/256/35
f 7/257/36 5/258/36 21/259/36 23/260/36
f 6/261/35 8/262/35 24/263/35 22/264/35
f 9/265/36 7/266/36 23/267/36 25/268/36
f 8/269/35 10/270/35 26/271/35 24/272/35
f 11/273/36 9/274/36 25/275/36 27/276/36
f 10/277/35 12/278/35 28/279/35 26/280/35
f 13/281/36 11/282/36 27/283/36 29/284/36
f 12/285/35 14/286/35 30/287/35 28/288/35
f 15/289/36 13/290/36 29/291/36 31/292/36
f 14/293/35 16/294/35 32/295/35 30/296/35
f 1/297/36 15/298/36 31/299/36 17/300/36
f 16/301/35 2/302/35 20/303/35 32/304/35
