# Blender v2.83.0 OBJ File: 'Weapons.blend'
# www.blender.org
mtllib Pick.mtl
o Axe_Cube.002
v 0.279101 0.972227 0.059737
v -0.405695 0.959689 0.048226
v 0.279101 0.972227 -0.059737
v -0.099340 1.084295 0.068370
v -0.405695 0.959689 -0.048226
v 0.405695 0.959689 0.048226
v -0.279101 0.972227 0.059737
v -0.099340 1.084295 -0.068370
v -0.279101 0.972227 -0.059737
v 0.405695 0.959689 -0.048226
v 0.000000 1.016173 -0.050000
v -0.405695 0.914437 -0.048226
v 0.279101 1.036095 -0.059737
v 0.099340 1.084295 0.068370
v 0.279101 1.036095 0.059737
v -0.405695 0.914437 0.048226
v -0.279101 1.036095 -0.059737
v 0.405695 0.914437 -0.048226
v 0.099340 1.084295 -0.068370
v 0.405695 0.914437 0.048226
v -0.279101 1.036095 0.059737
v -0.099340 1.016173 -0.068370
v -0.099340 1.016173 0.068370
v 0.099340 1.016173 -0.068370
v 0.099340 1.016173 0.068370
v -0.035355 1.016173 -0.035355
v -0.050000 1.016173 0.000000
v -0.035355 1.016173 0.035355
v 0.000000 1.016173 0.050000
v 0.035355 1.016173 0.035355
v 0.050000 1.016173 0.000000
v 0.035355 1.016173 -0.035355
v 0.000000 -0.242407 -0.050000
v -0.035355 -0.242407 -0.035355
v -0.050000 -0.242407 0.000000
v -0.035355 -0.242407 0.035355
v 0.000000 -0.242407 0.050000
v 0.035355 -0.242407 0.035355
v 0.050000 -0.242407 0.000000
v 0.035355 -0.242407 -0.035355
v 0.050000 0.200291 0.000000
v 0.035355 0.200291 0.035355
v 0.000000 0.200291 0.050000
v -0.035355 0.200291 0.035355
v -0.050000 0.200291 0.000000
v -0.035355 0.200291 -0.035355
v 0.035355 0.200291 -0.035355
v 0.000000 0.200291 -0.050000
v 0.050000 -0.200291 0.000000
v 0.000000 -0.200291 0.050000
v -0.050000 -0.200291 0.000000
v 0.035355 -0.200291 -0.035355
v 0.035355 -0.200291 0.035355
v -0.035355 -0.200291 0.035355
v -0.035355 -0.200291 -0.035355
v 0.000000 -0.200291 -0.050000
v 0.038207 -0.200291 0.038207
v 0.038207 0.200291 0.038207
v -0.038207 -0.200291 0.038207
v -0.038207 0.200291 0.038207
v -0.038207 -0.200291 -0.038207
v -0.038207 0.200291 -0.038207
v -0.000000 -0.200291 -0.054033
v -0.000000 0.200291 -0.054033
v 0.038207 0.200291 -0.038207
v -0.054033 0.200291 -0.000000
v -0.000000 0.200291 0.054033
v 0.054033 0.200291 -0.000000
v 0.054033 -0.200291 -0.000000
v -0.000000 -0.200291 0.054033
v -0.054033 -0.200291 -0.000000
v 0.038207 -0.200291 -0.038207
v -0.483292 0.870299 0.024928
v -0.483292 0.870299 -0.024928
v 0.483292 0.870299 0.024928
v 0.483292 0.870299 -0.024928
vt 0.488424 0.177076
vt 0.488424 0.312799
vt 0.304744 0.304231
vt 0.304744 0.185644
vt 0.768775 0.608689
vt 0.823110 0.576030
vt 0.823110 0.723241
vt 0.784612 0.746380
vt 0.118669 0.040005
vt 0.315874 0.040005
vt 0.315874 0.175729
vt 0.118669 0.175729
vt 0.483020 0.769516
vt 0.452857 0.736235
vt 0.483020 0.649768
vt 0.372360 0.571150
vt 0.372360 0.768356
vt 0.304744 0.768356
vt 0.304744 0.571150
vt 0.288306 0.769516
vt 0.258143 0.683050
vt 0.288306 0.649769
vt 0.812257 0.063130
vt 0.812257 0.112616
vt 0.723648 0.135741
vt 0.723648 0.040005
vt 0.878790 0.746380
vt 0.824456 0.713722
vt 0.840293 0.576030
vt 0.878790 0.599170
vt 0.828926 0.381431
vt 0.883260 0.348772
vt 0.883260 0.495983
vt 0.844763 0.519122
vt 0.883260 0.347426
vt 0.828926 0.314767
vt 0.844763 0.177076
vt 0.883260 0.200215
vt 0.256796 0.755030
vt 0.191110 0.771070
vt 0.195211 0.586188
vt 0.256796 0.571150
vt 0.767429 0.759910
vt 0.701743 0.775950
vt 0.705844 0.591068
vt 0.767429 0.576030
vt 0.488424 0.314146
vt 0.488424 0.449870
vt 0.304744 0.441302
vt 0.304744 0.322714
vt 0.697220 0.644993
vt 0.697220 0.740728
vt 0.608610 0.717604
vt 0.608610 0.668117
vt 0.604808 0.135741
vt 0.604808 0.040005
vt 0.722301 0.063130
vt 0.722301 0.112616
vt 0.999327 0.121767
vt 0.999327 0.241514
vt 0.969163 0.155048
vt 0.256796 0.451216
vt 0.256796 0.569804
vt 0.118669 0.558378
vt 0.118669 0.462642
vt 0.303397 0.177076
vt 0.303397 0.312799
vt 0.118669 0.304231
vt 0.118669 0.185644
vt 0.686976 0.576030
vt 0.686976 0.643646
vt 0.489771 0.643646
vt 0.489771 0.576030
vt 0.118669 0.571150
vt 0.184355 0.587190
vt 0.184355 0.771070
vt 0.122770 0.756032
vt 0.451510 0.451216
vt 0.451510 0.569803
vt 0.304744 0.558378
vt 0.304744 0.462642
vt 0.603461 0.040005
vt 0.603461 0.158592
vt 0.465334 0.147166
vt 0.465334 0.051431
vt 0.463987 0.040005
vt 0.463987 0.158592
vt 0.317221 0.147166
vt 0.317221 0.051431
vt 0.303397 0.314146
vt 0.303397 0.449870
vt 0.118669 0.441302
vt 0.118669 0.322714
vt 0.373706 0.571150
vt 0.439392 0.587190
vt 0.439392 0.771070
vt 0.377808 0.756032
vt 0.452857 0.549819
vt 0.471090 0.451216
vt 0.471090 0.648422
vt 0.925559 0.951442
vt 0.925559 0.851168
vt 0.904884 0.919577
vt 0.846467 0.767677
vt 0.878790 0.831415
vt 0.878790 0.747727
vt 0.978805 0.811836
vt 0.978805 0.947560
vt 0.929831 0.879698
vt 0.845120 0.831415
vt 0.845120 0.747727
vt 0.812797 0.811465
vt 0.863924 0.071870
vt 0.884599 0.140280
vt 0.884599 0.040005
vt 0.969163 0.274726
vt 0.989837 0.343135
vt 0.989837 0.242861
vt 0.066666 0.974188
vt 0.066666 0.890499
vt 0.034343 0.954238
vt 0.862578 0.175729
vt 0.813603 0.107867
vt 0.862578 0.040005
vt 0.032997 0.890499
vt 0.000673 0.910449
vt 0.032997 0.974188
vt 0.298397 0.551491
vt 0.298397 0.451216
vt 0.277722 0.519626
vt 0.276376 0.648423
vt 0.258143 0.549820
vt 0.276376 0.451216
vt 0.489771 0.740728
vt 0.489771 0.644993
vt 0.607264 0.668117
vt 0.607264 0.717604
vt 0.999327 0.120421
vt 0.969163 0.087140
vt 0.999327 0.000673
vt 0.866910 0.562272
vt 0.866910 0.520469
vt 0.828926 0.520469
vt 0.828926 0.562272
vt 0.105997 0.932302
vt 0.105997 0.890499
vt 0.068013 0.890499
vt 0.068013 0.932303
vt 0.527755 0.783878
vt 0.527755 0.742075
vt 0.489771 0.742075
vt 0.489771 0.783878
vt 0.768775 0.747727
vt 0.768775 0.789530
vt 0.806759 0.789530
vt 0.806759 0.747727
vt 0.567086 0.783878
vt 0.567086 0.742075
vt 0.529101 0.742075
vt 0.529101 0.783878
vt 0.606416 0.783878
vt 0.606416 0.742075
vt 0.568432 0.742075
vt 0.568432 0.783878
vt 0.647941 0.742075
vt 0.647941 0.783878
vt 0.685925 0.783878
vt 0.685925 0.742075
vt 0.608610 0.742075
vt 0.608610 0.783878
vt 0.646595 0.783878
vt 0.646595 0.742075
vt 0.811836 0.878026
vt 0.811836 0.916011
vt 0.838695 0.942870
vt 0.876679 0.942870
vt 0.903538 0.916011
vt 0.903538 0.878026
vt 0.876679 0.851168
vt 0.838695 0.851168
vt 0.000673 0.889152
vt 0.810489 0.889153
vt 0.810489 0.851168
vt 0.000673 0.851168
vt 0.928484 0.849821
vt 0.928484 0.040005
vt 0.890499 0.040005
vt 0.890501 0.849821
vt 0.117322 0.810489
vt 0.117322 0.000673
vt 0.079337 0.000673
vt 0.079338 0.810489
vt 0.000673 0.849820
vt 0.810489 0.849821
vt 0.810489 0.811836
vt 0.000673 0.811836
vt 0.077990 0.810489
vt 0.077990 0.000673
vt 0.040005 0.000673
vt 0.040006 0.810489
vt 0.118669 0.038657
vt 0.928485 0.038659
vt 0.928485 0.000673
vt 0.118669 0.000673
vt 0.038659 0.810489
vt 0.038659 0.000673
vt 0.000673 0.000673
vt 0.000675 0.810489
vt 0.967816 0.810489
vt 0.967816 0.000673
vt 0.929831 0.000673
vt 0.929832 0.810489
vt 0.185701 0.610666
vt 0.189399 0.612198
vt 0.189399 0.571150
vt 0.185701 0.572682
vt 0.482526 0.533127
vt 0.486224 0.534659
vt 0.486224 0.493611
vt 0.482526 0.495143
vt 0.294699 0.592354
vt 0.298397 0.593885
vt 0.298397 0.552838
vt 0.294699 0.554369
vt 0.482526 0.575521
vt 0.486224 0.577053
vt 0.486224 0.536005
vt 0.482526 0.537537
vt 0.476135 0.452748
vt 0.472436 0.451216
vt 0.472436 0.492264
vt 0.476135 0.490732
vt 0.472436 0.533127
vt 0.476135 0.534659
vt 0.476135 0.493611
vt 0.472436 0.495143
vt 0.277722 0.592354
vt 0.281420 0.593885
vt 0.281420 0.552838
vt 0.277722 0.554369
vt 0.477481 0.575521
vt 0.481179 0.577053
vt 0.481179 0.536005
vt 0.477481 0.537537
vt 0.659348 0.177076
vt 0.659349 0.574684
vt 0.700396 0.574684
vt 0.700396 0.177076
vt 0.616954 0.177076
vt 0.616954 0.574684
vt 0.658002 0.574684
vt 0.658002 0.177076
vt 0.786532 0.177076
vt 0.786532 0.574684
vt 0.827580 0.574684
vt 0.827580 0.177076
vt 0.701743 0.177076
vt 0.701743 0.574684
vt 0.742791 0.574684
vt 0.742791 0.177076
vt 0.744137 0.177076
vt 0.744137 0.574684
vt 0.785185 0.574684
vt 0.785185 0.177076
vt 0.489771 0.177076
vt 0.489771 0.574684
vt 0.530819 0.574684
vt 0.530819 0.177076
vt 0.532165 0.177076
vt 0.532165 0.574684
vt 0.573213 0.574684
vt 0.573213 0.177076
vt 0.574560 0.177076
vt 0.574560 0.574684
vt 0.615608 0.574684
vt 0.615608 0.177076
vt 0.476135 0.537537
vt 0.472436 0.536005
vt 0.472436 0.577053
vt 0.476135 0.575521
vt 0.486224 0.452748
vt 0.482526 0.451216
vt 0.482526 0.492264
vt 0.486224 0.490732
vt 0.477481 0.490732
vt 0.481179 0.492264
vt 0.481179 0.451216
vt 0.477481 0.452748
vt 0.477481 0.533127
vt 0.481179 0.534659
vt 0.481179 0.493611
vt 0.477481 0.495143
vt 0.282767 0.592354
vt 0.286465 0.593885
vt 0.286465 0.552838
vt 0.282767 0.554369
vt 0.287812 0.592354
vt 0.291510 0.593885
vt 0.291510 0.552838
vt 0.287812 0.554369
vt 0.447812 0.610666
vt 0.451510 0.612198
vt 0.451510 0.571150
vt 0.447812 0.572682
vt 0.440739 0.610666
vt 0.444437 0.612198
vt 0.444437 0.571150
vt 0.440739 0.572682
vn 0.2375 -0.9714 0.0000
vn -0.0906 0.0000 0.9959
vn 0.0000 1.0000 0.0000
vn -0.2876 0.0000 -0.9578
vn 0.0000 0.0000 -1.0000
vn -0.2876 0.0000 0.9578
vn 0.4944 -0.8692 0.0000
vn 0.0906 0.0000 0.9959
vn 0.0906 0.0000 -0.9959
vn -0.0906 0.0000 -0.9959
vn 0.0480 0.0000 -0.9988
vn -0.0480 0.0000 0.9988
vn -0.2375 -0.9714 0.0000
vn -0.4944 -0.8692 0.0000
vn 0.7552 0.6555 0.0000
vn 0.2876 0.0000 -0.9578
vn 0.4153 -0.9097 0.0000
vn -0.2590 0.9659 0.0000
vn 0.0000 0.0000 1.0000
vn -0.0480 0.0000 -0.9988
vn 0.5167 0.8561 0.0000
vn -0.4153 -0.9097 0.0000
vn -0.5167 0.8561 0.0000
vn 0.2590 0.9659 0.0000
vn 0.0480 0.0000 0.9988
vn 0.0000 -1.0000 0.0000
vn -0.7552 0.6555 0.0000
vn 0.2876 0.0000 0.9578
vn 0.9239 0.0000 0.3827
vn -0.3827 0.0000 0.9239
vn -0.9239 0.0000 -0.3827
vn 0.9239 0.0000 -0.3827
vn 0.3827 0.0000 0.9239
vn -0.9239 0.0000 0.3827
vn -0.3827 0.0000 -0.9239
vn 0.3827 0.0000 -0.9239
usemtl Steel.002
s off
f 22/1/1 23/2/1 7/3/1 9/4/1
f 7/5/2 21/6/2 2/7/2 16/8/2
f 19/9/3 8/10/3 4/11/3 14/12/3
f 5/13/4 12/14/4 74/15/4
f 8/16/5 19/17/5 24/18/5 22/19/5
f 73/20/6 16/21/6 2/22/6
f 73/23/7 74/24/7 12/25/7 16/26/7
f 15/27/8 1/28/8 20/29/8 6/30/8
f 3/31/9 13/32/9 10/33/9 18/34/9
f 17/35/10 9/36/10 12/37/10 5/38/10
f 24/39/11 19/40/11 13/41/11 3/42/11
f 23/43/12 4/44/12 21/45/12 7/46/12
f 25/47/13 24/48/13 3/49/13 1/50/13
f 20/51/14 18/52/14 76/53/14 75/54/14
f 10/55/15 6/56/15 75/57/15 76/58/15
f 10/59/16 76/60/16 18/61/16
f 9/62/17 7/63/17 16/64/17 12/65/17
f 4/66/18 8/67/18 17/68/18 21/69/18
f 4/70/19 23/71/19 25/72/19 14/73/19
f 8/74/20 22/75/20 9/76/20 17/77/20
f 13/78/21 15/79/21 6/80/21 10/81/21
f 1/82/22 3/83/22 18/84/22 20/85/22
f 21/86/23 17/87/23 5/88/23 2/89/23
f 19/90/24 14/91/24 15/92/24 13/93/24
f 14/94/25 25/95/25 1/96/25 15/97/25
f 11/98/26 22/99/26 24/100/26
f 11/101/26 24/102/26 32/103/26
f 32/104/26 24/105/26 31/106/26
f 24/107/26 25/108/26 31/109/26
f 31/110/26 25/111/26 30/112/26
f 30/113/26 25/114/26 29/115/26
f 26/116/26 22/117/26 11/118/26
f 27/119/26 22/120/26 26/121/26
f 22/122/26 27/123/26 23/124/26
f 27/125/26 28/126/26 23/127/26
f 29/128/26 23/129/26 28/130/26
f 23/131/26 29/132/26 25/133/26
f 2/134/27 5/135/27 74/136/27 73/137/27
f 6/138/28 20/139/28 75/140/28
usemtl Wood.001
f 53/141/29 38/142/29 39/143/29 49/144/29
f 54/145/30 36/146/30 37/147/30 50/148/30
f 55/149/31 34/150/31 35/151/31 51/152/31
f 49/153/32 39/154/32 40/155/32 52/156/32
f 50/157/33 37/158/33 38/159/33 53/160/33
f 51/161/34 35/162/34 36/163/34 54/164/34
f 56/165/35 33/166/35 34/167/35 55/168/35
f 52/169/36 40/170/36 33/171/36 56/172/36
f 33/173/26 40/174/26 39/175/26 38/176/26 37/177/26 36/178/26 35/179/26 34/180/26
f 32/181/36 47/182/36 48/183/36 11/184/36
f 11/185/35 48/186/35 46/187/35 26/188/35
f 27/189/34 45/190/34 44/191/34 28/192/34
f 29/193/33 43/194/33 42/195/33 30/196/33
f 31/197/32 41/198/32 47/199/32 32/200/32
f 26/201/31 46/202/31 45/203/31 27/204/31
f 28/205/30 44/206/30 43/207/30 29/208/30
f 30/209/29 42/210/29 41/211/29 31/212/29
usemtl Leather.002
f 44/213/3 60/214/3 67/215/3 43/216/3
f 52/217/26 72/218/26 69/219/26 49/220/26
f 46/221/3 62/222/3 66/223/3 45/224/3
f 53/225/26 57/226/26 70/227/26 50/228/26
f 41/229/3 68/230/3 65/231/3 47/232/3
f 54/233/26 59/234/26 71/235/26 51/236/26
f 43/237/3 67/238/3 58/239/3 42/240/3
f 55/241/26 61/242/26 63/243/26 56/244/26
f 65/245/36 72/246/36 63/247/36 64/248/36
f 64/249/35 63/250/35 61/251/35 62/252/35
f 66/253/34 71/254/34 59/255/34 60/256/34
f 67/257/33 70/258/33 57/259/33 58/260/33
f 68/261/32 69/262/32 72/263/32 65/264/32
f 62/265/31 61/266/31 71/267/31 66/268/31
f 60/269/30 59/270/30 70/271/30 67/272/30
f 58/273/29 57/274/29 69/275/29 68/276/29
f 51/277/26 71/278/26 61/279/26 55/280/26
f 42/281/3 58/282/3 68/283/3 41/284/3
f 50/285/26 70/286/26 59/287/26 54/288/26
f 47/289/3 65/290/3 64/291/3 48/292/3
f 49/293/26 69/294/26 57/295/26 53/296/26
f 48/297/3 64/298/3 62/299/3 46/300/3
f 56/301/26 63/302/26 72/303/26 52/304/26
f 45/305/3 66/306/3 60/307/3 44/308/3
